<?xml version="1.0" encoding="utf-8"?>
<!-- Generator: Adobe Illustrator 16.0.0, SVG Export Plug-In . SVG Version: 6.00 Build 0)  -->
<!DOCTYPE svg PUBLIC "-//W3C//DTD SVG 1.1//EN" "http://www.w3.org/Graphics/SVG/1.1/DTD/svg11.dtd">
<svg version="1.1" id="Layer_1" xmlns="http://www.w3.org/2000/svg" xmlns:xlink="http://www.w3.org/1999/xlink" x="0px" y="0px"
	 width="50px" height="50px" viewBox="314.5 -315.5 50 50" enable-background="new 314.5 -315.5 50 50" xml:space="preserve">
<path d="M359.742-279.896v3.599c0,1.299-1.052,2.352-2.351,2.352h-1.269c0.002-0.053,0.016-0.103,0.016-0.157v-3.599
	c0-1.861-1.194-3.484-2.972-4.04l-7.518-2.348c1.485-2.684,2.358-6.062,2.358-9.355c0-5.863-3.078-10.054-7.866-11.076
	c0.946-0.361,1.995-0.561,3.141-0.561c5.061,0,8.33,3.706,8.33,9.442c0,3.791-1.304,7.843-3.451,10.397l9.931,3.101
	C359.074-281.833,359.742-280.924,359.742-279.896z M352.607-279.945l-9.931-3.101c2.147-2.555,3.45-6.607,3.45-10.398
	c0-5.736-3.27-9.442-8.329-9.442c-5.061,0-8.33,3.706-8.33,9.442c0,3.791,1.304,7.843,3.451,10.398l-9.931,3.101
	c-0.982,0.307-1.65,1.215-1.65,2.244v3.599c0,1.299,1.052,2.351,2.351,2.351h28.218c1.299,0,2.352-1.052,2.352-2.351v-3.599
	C354.258-278.729,353.589-279.638,352.607-279.945z" fill="#669535"/>
</svg>
