<?xml version="1.0" encoding="utf-8"?>
<!-- Generator: Adobe Illustrator 16.0.0, SVG Export Plug-In . SVG Version: 6.00 Build 0)  -->
<!DOCTYPE svg PUBLIC "-//W3C//DTD SVG 1.1//EN" "http://www.w3.org/Graphics/SVG/1.1/DTD/svg11.dtd">
<svg version="1.1" id="Layer_1" xmlns="http://www.w3.org/2000/svg" xmlns:xlink="http://www.w3.org/1999/xlink" x="0px" y="0px"
	 width="50px" height="50px" viewBox="-35.5 -105.5 50 50" enable-background="new -35.5 -105.5 50 50" xml:space="preserve">
<path d="M4.762-72.438c0,1.19-0.464,2.311-1.306,3.152L1.57-67.399v2.667c0,2.459-2,4.459-4.458,4.459h-0.405
	c1.901-0.526,3.31-2.253,3.31-4.32v-2.692l1.904-1.903c0.85-0.85,1.318-1.98,1.318-3.183S2.77-74.704,1.92-75.554l-1.904-1.904
	v-2.692c0-1.202-0.468-2.332-1.318-3.182c-0.433-0.434-0.938-0.768-1.489-0.99l0.019-0.277c0.006-0.084,0.01-0.168,0.01-0.254
	v-9.699c0-4.034-2.554-6.783-6.817-7.576c5.207,0.33,8.396,3.221,8.396,7.714v9.609c0,0.085-0.004,0.169-0.01,0.252l-0.019,0.274
	c0.546,0.222,1.047,0.552,1.476,0.981c0.842,0.842,1.306,1.962,1.306,3.152v2.668l1.886,1.887C4.298-74.75,4.762-73.63,4.762-72.438
	z M-17.349-84.649l1.904-1.904c0.849-0.851,1.979-1.318,3.182-1.318s2.333,0.468,3.183,1.318l1.903,1.903h2.404
	c0.002-0.068,0.01-0.135,0.01-0.203v-9.699c0-4.132-3.357-5.819-7.5-5.819s-7.5,1.688-7.5,5.819v9.699
	c0,0.068,0.008,0.136,0.01,0.204H-17.349z M0.506-70.604l-2.49,2.49v3.521c0,1.381-1.119,2.5-2.5,2.5l-3.521,0.001l-2.489,2.489
	c-0.488,0.488-1.128,0.732-1.768,0.732s-1.28-0.244-1.768-0.732l-2.489-2.489l-3.522,0.001c-0.663,0-1.299-0.264-1.768-0.732
	c-0.469-0.469-0.732-1.104-0.732-1.768v-3.523l-2.489-2.489c-0.977-0.976-0.977-2.559,0-3.535l2.489-2.489v-3.521
	c0-1.381,1.119-2.5,2.5-2.5h3.521l2.49-2.49c0.976-0.977,2.56-0.977,3.535,0l2.49,2.489h3.521c0.663,0,1.299,0.264,1.768,0.732
	c0.469,0.469,0.732,1.104,0.732,1.768v3.521l2.49,2.489C1.482-73.163,1.482-71.58,0.506-70.604z" fill="#fff"/>
</svg>
