<?xml version="1.0" encoding="utf-8"?>
<!-- Generator: Adobe Illustrator 16.0.0, SVG Export Plug-In . SVG Version: 6.00 Build 0)  -->
<!DOCTYPE svg PUBLIC "-//W3C//DTD SVG 1.1//EN" "http://www.w3.org/Graphics/SVG/1.1/DTD/svg11.dtd">
<svg version="1.1" id="Layer_1" xmlns="http://www.w3.org/2000/svg" xmlns:xlink="http://www.w3.org/1999/xlink" x="0px" y="0px"
	 width="50px" height="50px" viewBox="-315.5 -245.5 50 50" enable-background="new -315.5 -245.5 50 50" xml:space="preserve">
<path d="M-269.542-220.088c-0.292,0.781-1.039,1.298-1.873,1.298h-4.735v15.231c0,1.104-0.896,2-2,2h-8.424c-1.104,0-2-0.896-2-2
	v-7.381h-3.854v7.381c0,1.104-0.896,2-2,2h-8.424c-1.104,0-2-0.896-2-2v-15.232h-4.735c-0.834,0-1.58-0.517-1.873-1.298
	c-0.293-0.781-0.07-1.661,0.558-2.209l19.086-16.649c0.754-0.657,1.876-0.657,2.63,0l2.861,2.497
	c0.19-0.907,0.995-1.587,1.958-1.587h4.908c1.104,0,2,0.896,2,2v7.321l7.359,6.42C-269.471-221.75-269.249-220.869-269.542-220.088z
	" fill="#669535"/>
</svg>
