<?xml version="1.0" encoding="utf-8"?>
<!-- Generator: Adobe Illustrator 16.0.0, SVG Export Plug-In . SVG Version: 6.00 Build 0)  -->
<!DOCTYPE svg PUBLIC "-//W3C//DTD SVG 1.1//EN" "http://www.w3.org/Graphics/SVG/1.1/DTD/svg11.dtd">
<svg version="1.1" id="Layer_1" xmlns="http://www.w3.org/2000/svg" xmlns:xlink="http://www.w3.org/1999/xlink" x="0px" y="0px"
	 width="50px" height="50px" viewBox="174.5 -315.5 50 50" enable-background="new 174.5 -315.5 50 50" xml:space="preserve">
<path d="M219.69-284.187l-7.324-7.324c-1.215-1.216-2.893-1.886-4.721-1.886c-1.502,0-3.018,0.456-4.377,1.273l-0.289-0.288
	c1.834-3.064,1.686-6.802-0.613-9.1l-7.322-7.324c-1.217-1.217-2.895-1.887-4.723-1.887c-2.236,0-4.508,0.991-6.236,2.72
	l-0.23,0.229c-3.25,3.252-3.623,8.167-0.832,10.958l7.324,7.324c1.217,1.217,2.893,1.887,4.721,1.887
	c1.502,0,3.018-0.456,4.377-1.274l0.289,0.289c-1.834,3.063-1.686,6.801,0.613,9.1l7.322,7.323c1.217,1.217,2.895,1.888,4.723,1.888
	c2.236,0,4.51-0.991,6.24-2.724l0.225-0.226C222.108-276.479,222.481-281.395,219.69-284.187z M195.067-292.604
	c-0.348,0-0.838-0.073-1.186-0.422l-7.324-7.324c-0.723-0.722-0.559-2.497,0.832-3.888l0.23-0.229
	c0.785-0.785,1.795-1.255,2.701-1.255c0.35,0,0.838,0.073,1.188,0.422l7.322,7.324c0.375,0.374,0.504,1.032,0.355,1.771
	l-4.018-4.018c-0.977-0.977-2.559-0.977-3.535,0c-0.977,0.976-0.977,2.559,0,3.535l4.014,4.013
	C195.452-292.635,195.257-292.604,195.067-292.604z M215.317-276.76l-0.225,0.227c-0.785,0.785-1.795,1.255-2.701,1.255
	c-0.348,0-0.838-0.074-1.188-0.423l-7.322-7.323c-0.375-0.374-0.504-1.032-0.355-1.771l4.018,4.018
	c0.488,0.488,1.127,0.732,1.768,0.732c0.639,0,1.279-0.244,1.768-0.732c0.977-0.977,0.977-2.56,0-3.535l-4.014-4.013
	c0.195-0.04,0.391-0.071,0.58-0.071c0.348,0,0.838,0.073,1.186,0.421l7.324,7.324C216.878-279.929,216.712-278.154,215.317-276.76z"  fill="#fff"
	/>
</svg>
