<?xml version="1.0" encoding="utf-8"?>
<!-- Generator: Adobe Illustrator 16.0.0, SVG Export Plug-In . SVG Version: 6.00 Build 0)  -->
<!DOCTYPE svg PUBLIC "-//W3C//DTD SVG 1.1//EN" "http://www.w3.org/Graphics/SVG/1.1/DTD/svg11.dtd">
<svg version="1.1" id="Layer_1" xmlns="http://www.w3.org/2000/svg" xmlns:xlink="http://www.w3.org/1999/xlink" x="0px" y="0px"
	 width="50px" height="50px" viewBox="-105.5 -175.5 50 50" enable-background="new -105.5 -175.5 50 50" xml:space="preserve">
<path d="M-61.5-150.5c0,1.687-1.367,3.054-3.054,3.054c-1.686,0-3.053-1.367-3.053-3.054s1.367-3.054,3.053-3.054
	C-62.867-153.554-61.5-152.187-61.5-150.5z M-93.393-150.5c0-1.687-1.367-3.054-3.053-3.054c-1.687,0-3.054,1.367-3.054,3.054
	s1.367,3.054,3.054,3.054C-94.76-147.446-93.393-148.813-93.393-150.5z M-80.5-137.607c-1.686,0-3.054,1.367-3.054,3.053
	c0,1.687,1.368,3.054,3.054,3.054c1.687,0,3.054-1.367,3.054-3.054C-77.446-136.24-78.813-137.607-80.5-137.607z M-80.5-163.393
	c1.687,0,3.054-1.367,3.054-3.053c0-1.687-1.367-3.054-3.054-3.054c-1.686,0-3.054,1.367-3.054,3.054
	C-83.554-164.76-82.186-163.393-80.5-163.393z M-71.383-141.383c-1.192,1.192-1.192,3.126,0,4.318s3.126,1.192,4.318,0
	s1.192-3.126,0-4.318S-70.191-142.576-71.383-141.383z M-89.617-159.617c1.192-1.192,1.192-3.126,0-4.318s-3.126-1.192-4.318,0
	s-1.192,3.126,0,4.318S-90.809-158.424-89.617-159.617z M-93.935-141.383c-1.192,1.192-1.192,3.126,0,4.318s3.126,1.192,4.318,0
	s1.192-3.126,0-4.318S-92.743-142.576-93.935-141.383z M-67.065-159.617c1.192-1.192,1.192-3.126,0-4.318s-3.126-1.192-4.318,0
	s-1.192,3.126,0,4.318S-68.257-158.424-67.065-159.617z M-72.368-144.282l-2.682-2.682c0.577-0.886,0.94-1.921,1.025-3.036H-70
	c0.552,0,1-0.448,1-1s-0.448-1-1-1h-4.181c-0.231-0.975-0.675-1.866-1.29-2.616l3.102-3.102c0.391-0.391,0.391-1.023,0-1.414
	s-1.023-0.391-1.414,0l-3.182,3.182c-0.752-0.489-1.612-0.822-2.536-0.965v-4.585c0-0.552-0.448-1-1-1s-1,0.448-1,1v4.585
	c-0.924,0.143-1.784,0.476-2.536,0.965l-3.182-3.182c-0.391-0.391-1.023-0.391-1.414,0s-0.391,1.023,0,1.414l3.102,3.102
	c-0.614,0.75-1.059,1.641-1.29,2.616H-91c-0.552,0-1,0.448-1,1s0.448,1,1,1h4.025c0.085,1.114,0.448,2.149,1.025,3.036l-2.682,2.682
	c-0.391,0.391-0.391,1.023,0,1.414c0.195,0.195,0.451,0.293,0.707,0.293s0.512-0.098,0.707-0.293l2.602-2.602
	c0.876,0.718,1.945,1.204,3.116,1.385v3.585c0,0.552,0.448,1,1,1s1-0.448,1-1v-3.585c1.17-0.181,2.239-0.667,3.116-1.385
	l2.602,2.602c0.195,0.195,0.451,0.293,0.707,0.293s0.512-0.098,0.707-0.293C-71.978-143.259-71.978-143.892-72.368-144.282z" fill="#ffffff"/>
</svg>
