<?xml version="1.0" encoding="utf-8"?>
<!-- Generator: Adobe Illustrator 16.0.0, SVG Export Plug-In . SVG Version: 6.00 Build 0)  -->
<!DOCTYPE svg PUBLIC "-//W3C//DTD SVG 1.1//EN" "http://www.w3.org/Graphics/SVG/1.1/DTD/svg11.dtd">
<svg version="1.1" id="Layer_1" xmlns="http://www.w3.org/2000/svg" xmlns:xlink="http://www.w3.org/1999/xlink" x="0px" y="0px"
	 width="50px" height="50px" viewBox="34.5 -175.5 50 50" enable-background="new 34.5 -175.5 50 50" xml:space="preserve">
<path d="M75.25-138v-25c0-2.761-2.238-5-5-5h-25c-2.762,0-5,2.239-5,5v25c0,2.761,2.238,5,5,5h25
	C73.012-133,75.25-135.239,75.25-138z M47.5-161.75h10.038c0.828,0,1.5,0.671,1.5,1.5s-0.672,1.5-1.5,1.5H47.5
	c-0.828,0-1.5-0.671-1.5-1.5S46.672-161.75,47.5-161.75z M47.5-155.25h10c0.828,0,1.5,0.671,1.5,1.5s-0.672,1.5-1.5,1.5h-10
	c-0.828,0-1.5-0.671-1.5-1.5S46.672-155.25,47.5-155.25z M68-139.25H47.5c-0.828,0-1.5-0.671-1.5-1.5s0.672-1.5,1.5-1.5H68
	c0.828,0,1.5,0.671,1.5,1.5S68.828-139.25,68-139.25z M68-145.75H47.5c-0.828,0-1.5-0.671-1.5-1.5s0.672-1.5,1.5-1.5H68
	c0.828,0,1.5,0.671,1.5,1.5S68.828-145.75,68-145.75z M78.75-159.536v22.113c0,2.442-1.979,4.423-4.423,4.423h-2.493
	c2.762,0,5-2.239,5-5v-25c0-0.065-0.017-0.126-0.02-0.191C77.982-162.395,78.75-161.056,78.75-159.536z" fill="#669535"/>
</svg>
