<?xml version="1.0" encoding="utf-8"?>
<!-- Generator: Adobe Illustrator 16.0.0, SVG Export Plug-In . SVG Version: 6.00 Build 0)  -->
<!DOCTYPE svg PUBLIC "-//W3C//DTD SVG 1.1//EN" "http://www.w3.org/Graphics/SVG/1.1/DTD/svg11.dtd">
<svg version="1.1" id="Layer_1" xmlns="http://www.w3.org/2000/svg" xmlns:xlink="http://www.w3.org/1999/xlink" x="0px" y="0px"
	 width="50px" height="50px" viewBox="34.5 -315.5 50 50" enable-background="new 34.5 -315.5 50 50" xml:space="preserve">
<path d="M75.574-294.705c0.004-0.089,0.006-0.178,0.006-0.268c0-6.831-5.557-12.389-12.389-12.389c-4,0-7.676,1.892-10.006,5.104
	c-0.803-0.361-1.672-0.549-2.561-0.549c-3.453,0-6.262,2.81-6.262,6.263c0,0.407,0.039,0.813,0.121,1.214
	c-3.252,1.628-5.307,4.915-5.307,8.604c0,5.315,4.324,9.64,9.641,9.64h0.359c1.582,2.09,4.084,3.446,6.906,3.446
	c2.039,0,3.912-0.71,5.393-1.889c1.023,0.564,2.199,0.888,3.451,0.888c2.148,0,4.07-0.952,5.383-2.451
	c5.256-0.07,9.512-4.361,9.512-9.634C79.822-289.917,78.209-292.92,75.574-294.705z M55.436-284.097
	c-1.313,0-2.376-1.063-2.376-2.376s1.063-2.376,2.376-2.376c1.312,0,2.375,1.063,2.375,2.376S56.747-284.097,55.436-284.097z
	 M61.636-284.097c-1.313,0-2.376-1.063-2.376-2.376s1.063-2.376,2.376-2.376c1.312,0,2.374,1.063,2.374,2.376
	S62.947-284.097,61.636-284.097z M67.835-284.097c-1.313,0-2.376-1.063-2.376-2.376s1.063-2.376,2.376-2.376
	c1.312,0,2.375,1.063,2.375,2.376S69.146-284.097,67.835-284.097z" fill="#669535"/>
</svg>
